<?xml version="1.0" encoding="UTF-8" standalone="no"?>
<!DOCTYPE svg PUBLIC "-//W3C//DTD SVG 1.1//EN"
 "http://www.w3.org/Graphics/SVG/1.1/DTD/svg11.dtd">
<!-- Generated by graphviz version 2.38.0 (20140413.2041)
 -->
<!-- Title: Tree Pages: 1 -->
<svg width="635pt" height="373pt"
 viewBox="0.00 0.00 635.00 373.00" xmlns="http://www.w3.org/2000/svg" xmlns:xlink="http://www.w3.org/1999/xlink">
<g id="graph0" class="graph" transform="scale(1 1) rotate(0) translate(4 369)">
<title>Tree</title>
<polygon fill="white" stroke="none" points="-4,4 -4,-369 631,-369 631,4 -4,4"/>
<!-- 0 -->
<g id="node1" class="node"><title>0</title>
<polygon fill="none" stroke="black" points="312.5,-365 133.5,-365 133.5,-297 312.5,-297 312.5,-365"/>
<text text-anchor="middle" x="223" y="-349.8" font-family="Times,serif" font-size="14.00">Petal Width &lt;= &#45;0.547</text>
<text text-anchor="middle" x="223" y="-334.8" font-family="Times,serif" font-size="14.00">gini = 0.6659</text>
<text text-anchor="middle" x="223" y="-319.8" font-family="Times,serif" font-size="14.00">samples = 90</text>
<text text-anchor="middle" x="223" y="-304.8" font-family="Times,serif" font-size="14.00">value = [29, 32, 29]</text>
</g>
<!-- 1 -->
<g id="node2" class="node"><title>1</title>
<polygon fill="none" stroke="black" points="203,-253.5 63,-253.5 63,-200.5 203,-200.5 203,-253.5"/>
<text text-anchor="middle" x="133" y="-238.3" font-family="Times,serif" font-size="14.00">gini = 0.0</text>
<text text-anchor="middle" x="133" y="-223.3" font-family="Times,serif" font-size="14.00">samples = 29</text>
<text text-anchor="middle" x="133" y="-208.3" font-family="Times,serif" font-size="14.00">value = [29, 0, 0]</text>
</g>
<!-- 0&#45;&gt;1 -->
<g id="edge1" class="edge"><title>0&#45;&gt;1</title>
<path fill="none" stroke="black" d="M193.78,-296.884C183.687,-285.446 172.383,-272.634 162.285,-261.19"/>
<polygon fill="black" stroke="black" points="164.758,-258.703 155.518,-253.52 159.509,-263.334 164.758,-258.703"/>
<text text-anchor="middle" x="153.958" y="-274.771" font-family="Times,serif" font-size="14.00">True</text>
</g>
<!-- 2 -->
<g id="node3" class="node"><title>2</title>
<polygon fill="none" stroke="black" points="404.5,-261 221.5,-261 221.5,-193 404.5,-193 404.5,-261"/>
<text text-anchor="middle" x="313" y="-245.8" font-family="Times,serif" font-size="14.00">Petal Width &lt;= 0.7171</text>
<text text-anchor="middle" x="313" y="-230.8" font-family="Times,serif" font-size="14.00">gini = 0.4988</text>
<text text-anchor="middle" x="313" y="-215.8" font-family="Times,serif" font-size="14.00">samples = 61</text>
<text text-anchor="middle" x="313" y="-200.8" font-family="Times,serif" font-size="14.00">value = [0, 32, 29]</text>
</g>
<!-- 0&#45;&gt;2 -->
<g id="edge2" class="edge"><title>0&#45;&gt;2</title>
<path fill="none" stroke="black" d="M252.22,-296.884C260.08,-287.976 268.675,-278.235 276.862,-268.957"/>
<polygon fill="black" stroke="black" points="279.626,-271.113 283.618,-261.299 274.378,-266.482 279.626,-271.113"/>
<text text-anchor="middle" x="285.178" y="-282.551" font-family="Times,serif" font-size="14.00">False</text>
</g>
<!-- 3 -->
<g id="node4" class="node"><title>3</title>
<polygon fill="none" stroke="black" points="304.5,-157 113.5,-157 113.5,-89 304.5,-89 304.5,-157"/>
<text text-anchor="middle" x="209" y="-141.8" font-family="Times,serif" font-size="14.00">Petal Length &lt;= 0.9787</text>
<text text-anchor="middle" x="209" y="-126.8" font-family="Times,serif" font-size="14.00">gini = 0.1139</text>
<text text-anchor="middle" x="209" y="-111.8" font-family="Times,serif" font-size="14.00">samples = 33</text>
<text text-anchor="middle" x="209" y="-96.8" font-family="Times,serif" font-size="14.00">value = [0, 31, 2]</text>
</g>
<!-- 2&#45;&gt;3 -->
<g id="edge3" class="edge"><title>2&#45;&gt;3</title>
<path fill="none" stroke="black" d="M279.234,-192.884C269.971,-183.798 259.823,-173.845 250.193,-164.4"/>
<polygon fill="black" stroke="black" points="252.542,-161.803 242.952,-157.299 247.641,-166.8 252.542,-161.803"/>
</g>
<!-- 6 -->
<g id="node7" class="node"><title>6</title>
<polygon fill="none" stroke="black" points="513.5,-157 322.5,-157 322.5,-89 513.5,-89 513.5,-157"/>
<text text-anchor="middle" x="418" y="-141.8" font-family="Times,serif" font-size="14.00">Petal Length &lt;= 0.6337</text>
<text text-anchor="middle" x="418" y="-126.8" font-family="Times,serif" font-size="14.00">gini = 0.0689</text>
<text text-anchor="middle" x="418" y="-111.8" font-family="Times,serif" font-size="14.00">samples = 28</text>
<text text-anchor="middle" x="418" y="-96.8" font-family="Times,serif" font-size="14.00">value = [0, 1, 27]</text>
</g>
<!-- 2&#45;&gt;6 -->
<g id="edge6" class="edge"><title>2&#45;&gt;6</title>
<path fill="none" stroke="black" d="M347.09,-192.884C356.443,-183.798 366.688,-173.845 376.411,-164.4"/>
<polygon fill="black" stroke="black" points="378.987,-166.778 383.721,-157.299 374.11,-161.757 378.987,-166.778"/>
</g>
<!-- 4 -->
<g id="node5" class="node"><title>4</title>
<polygon fill="none" stroke="black" points="140,-53 0,-53 0,-0 140,-0 140,-53"/>
<text text-anchor="middle" x="70" y="-37.8" font-family="Times,serif" font-size="14.00">gini = 0.0605</text>
<text text-anchor="middle" x="70" y="-22.8" font-family="Times,serif" font-size="14.00">samples = 32</text>
<text text-anchor="middle" x="70" y="-7.8" font-family="Times,serif" font-size="14.00">value = [0, 31, 1]</text>
</g>
<!-- 3&#45;&gt;4 -->
<g id="edge4" class="edge"><title>3&#45;&gt;4</title>
<path fill="none" stroke="black" d="M160.385,-88.9485C146.121,-79.2516 130.565,-68.6752 116.441,-59.073"/>
<polygon fill="black" stroke="black" points="118.094,-55.9646 107.856,-53.2367 114.158,-61.7535 118.094,-55.9646"/>
</g>
<!-- 5 -->
<g id="node6" class="node"><title>5</title>
<polygon fill="none" stroke="black" points="289.5,-53 158.5,-53 158.5,-0 289.5,-0 289.5,-53"/>
<text text-anchor="middle" x="224" y="-37.8" font-family="Times,serif" font-size="14.00">gini = 0.0</text>
<text text-anchor="middle" x="224" y="-22.8" font-family="Times,serif" font-size="14.00">samples = 1</text>
<text text-anchor="middle" x="224" y="-7.8" font-family="Times,serif" font-size="14.00">value = [0, 0, 1]</text>
</g>
<!-- 3&#45;&gt;5 -->
<g id="edge5" class="edge"><title>3&#45;&gt;5</title>
<path fill="none" stroke="black" d="M214.246,-88.9485C215.568,-80.6238 216.992,-71.6509 218.333,-63.2027"/>
<polygon fill="black" stroke="black" points="221.804,-63.6618 219.915,-53.2367 214.89,-62.5643 221.804,-63.6618"/>
</g>
<!-- 7 -->
<g id="node8" class="node"><title>7</title>
<polygon fill="none" stroke="black" points="468.5,-53 337.5,-53 337.5,-0 468.5,-0 468.5,-53"/>
<text text-anchor="middle" x="403" y="-37.8" font-family="Times,serif" font-size="14.00">gini = 0.5</text>
<text text-anchor="middle" x="403" y="-22.8" font-family="Times,serif" font-size="14.00">samples = 2</text>
<text text-anchor="middle" x="403" y="-7.8" font-family="Times,serif" font-size="14.00">value = [0, 1, 1]</text>
</g>
<!-- 6&#45;&gt;7 -->
<g id="edge7" class="edge"><title>6&#45;&gt;7</title>
<path fill="none" stroke="black" d="M412.754,-88.9485C411.432,-80.6238 410.008,-71.6509 408.667,-63.2027"/>
<polygon fill="black" stroke="black" points="412.11,-62.5643 407.085,-53.2367 405.196,-63.6618 412.11,-62.5643"/>
</g>
<!-- 8 -->
<g id="node9" class="node"><title>8</title>
<polygon fill="none" stroke="black" points="627,-53 487,-53 487,-0 627,-0 627,-53"/>
<text text-anchor="middle" x="557" y="-37.8" font-family="Times,serif" font-size="14.00">gini = 0.0</text>
<text text-anchor="middle" x="557" y="-22.8" font-family="Times,serif" font-size="14.00">samples = 26</text>
<text text-anchor="middle" x="557" y="-7.8" font-family="Times,serif" font-size="14.00">value = [0, 0, 26]</text>
</g>
<!-- 6&#45;&gt;8 -->
<g id="edge8" class="edge"><title>6&#45;&gt;8</title>
<path fill="none" stroke="black" d="M466.615,-88.9485C480.879,-79.2516 496.435,-68.6752 510.559,-59.073"/>
<polygon fill="black" stroke="black" points="512.842,-61.7535 519.144,-53.2367 508.906,-55.9646 512.842,-61.7535"/>
</g>
</g>
</svg>
